<?xml version="1.0" encoding="UTF-8" standalone="no"?>
<!DOCTYPE svg PUBLIC "-//W3C//DTD SVG 1.1//EN"
 "http://www.w3.org/Graphics/SVG/1.1/DTD/svg11.dtd">
<!-- Generated by graphviz version 2.43.0 (0)
 -->
<!-- Title: %3 Pages: 1 -->
<svg width="1152pt" height="293pt"
 viewBox="0.00 0.00 1152.00 292.50" xmlns="http://www.w3.org/2000/svg" xmlns:xlink="http://www.w3.org/1999/xlink">
<g id="graph0" class="graph" transform="scale(0.9 0.9) rotate(0) translate(4 321)">
<title>%3</title>
<polygon fill="white" stroke="transparent" points="-4,4 -4,-321 1276,-321 1276,4 -4,4"/>
<g id="clust1" class="cluster">
<title>cluster_phases</title>
<path fill="#f5f5f5" stroke="black" d="M20,-8C20,-8 172,-8 172,-8 178,-8 184,-14 184,-20 184,-20 184,-297 184,-297 184,-303 178,-309 172,-309 172,-309 20,-309 20,-309 14,-309 8,-303 8,-297 8,-297 8,-20 8,-20 8,-14 14,-8 20,-8"/>
<text text-anchor="middle" x="96" y="-293.8" font-family="Times,serif" font-size="14.00">Execution Phases</text>
</g>
<g id="clust2" class="cluster">
<title>cluster_artifacts</title>
<path fill="#f0f8ff" stroke="black" d="M204,-83C204,-83 1252,-83 1252,-83 1258,-83 1264,-89 1264,-95 1264,-95 1264,-146 1264,-146 1264,-152 1258,-158 1252,-158 1252,-158 204,-158 204,-158 198,-158 192,-152 192,-146 192,-146 192,-95 192,-95 192,-89 198,-83 204,-83"/>
<text text-anchor="middle" x="728" y="-142.8" font-family="Times,serif" font-size="14.00">Data Artifacts</text>
</g>
<!-- discovery -->
<g id="node1" class="node">
<title>discovery</title>
<path fill="#90ee90" stroke="black" d="M163.5,-278C163.5,-278 58.5,-278 58.5,-278 52.5,-278 46.5,-272 46.5,-266 46.5,-266 46.5,-252 46.5,-252 46.5,-246 52.5,-240 58.5,-240 58.5,-240 163.5,-240 163.5,-240 169.5,-240 175.5,-246 175.5,-252 175.5,-252 175.5,-266 175.5,-266 175.5,-272 169.5,-278 163.5,-278"/>
<text text-anchor="middle" x="111" y="-262.8" font-family="Arial" font-size="14.00">Network Discovery</text>
<text text-anchor="middle" x="111" y="-247.8" font-family="Arial" font-size="14.00">(completed)</text>
</g>
<!-- configuration -->
<g id="node2" class="node">
<title>configuration</title>
<path fill="#ffe4b5" stroke="black" d="M164,-204C164,-204 28,-204 28,-204 22,-204 16,-198 16,-192 16,-192 16,-178 16,-178 16,-172 22,-166 28,-166 28,-166 164,-166 164,-166 170,-166 176,-172 176,-178 176,-178 176,-192 176,-192 176,-198 170,-204 164,-204"/>
<text text-anchor="middle" x="96" y="-188.8" font-family="Arial" font-size="14.00">Configuration Collection</text>
<text text-anchor="middle" x="96" y="-173.8" font-family="Arial" font-size="14.00">(in_progress)</text>
</g>
<!-- discovery&#45;&gt;configuration -->
<g id="edge1" class="edge">
<title>discovery&#45;&gt;configuration</title>
<path fill="none" stroke="red" stroke-width="2" d="M107.21,-239.83C105.61,-232.13 103.7,-222.97 101.92,-214.42"/>
<polygon fill="red" stroke="red" stroke-width="2" points="105.3,-213.49 99.84,-204.41 98.45,-214.92 105.3,-213.49"/>
</g>
<!-- artifact_network_map -->
<g id="node5" class="node">
<title>artifact_network_map</title>
<polygon fill="#87ceeb" stroke="black" points="924,-127 833.85,-109 924,-91 1014.15,-109 924,-127"/>
<text text-anchor="middle" x="924" y="-105.3" font-family="Arial" font-size="14.00">network_map</text>
</g>
<!-- discovery&#45;&gt;artifact_network_map -->
<g id="edge4" class="edge">
<title>discovery&#45;&gt;artifact_network_map</title>
<path fill="none" stroke="green" stroke-dasharray="5,2" d="M175.97,-255.66C303.18,-249.6 592.98,-228.58 825,-158 849.03,-150.69 874.49,-138.23 893.57,-127.83"/>
<polygon fill="green" stroke="green" points="895.36,-130.85 902.4,-122.93 891.96,-124.73 895.36,-130.85"/>
</g>
<!-- artifact_service_inventory -->
<g id="node6" class="node">
<title>artifact_service_inventory</title>
<polygon fill="#87ceeb" stroke="black" points="1144,-127 1031.73,-109 1144,-91 1256.27,-109 1144,-127"/>
<text text-anchor="middle" x="1144" y="-105.3" font-family="Arial" font-size="14.00">service_inventory</text>
</g>
<!-- discovery&#45;&gt;artifact_service_inventory -->
<g id="edge6" class="edge">
<title>discovery&#45;&gt;artifact_service_inventory</title>
<path fill="none" stroke="green" stroke-dasharray="5,2" d="M175.6,-257.87C326.67,-256.09 713.67,-242.86 1023,-158 1052.12,-150.01 1083.8,-137.29 1107.43,-126.95"/>
<polygon fill="green" stroke="green" points="1109,-130.08 1116.72,-122.83 1106.16,-123.69 1109,-130.08"/>
</g>
<!-- validation -->
<g id="node3" class="node">
<title>validation</title>
<path fill="#e6e6fa" stroke="black" d="M164.5,-128C164.5,-128 29.5,-128 29.5,-128 23.5,-128 17.5,-122 17.5,-116 17.5,-116 17.5,-102 17.5,-102 17.5,-96 23.5,-90 29.5,-90 29.5,-90 164.5,-90 164.5,-90 170.5,-90 176.5,-96 176.5,-102 176.5,-102 176.5,-116 176.5,-116 176.5,-122 170.5,-128 164.5,-128"/>
<text text-anchor="middle" x="97" y="-112.8" font-family="Arial" font-size="14.00">Configuration Validation</text>
<text text-anchor="middle" x="97" y="-97.8" font-family="Arial" font-size="14.00">(pending)</text>
</g>
<!-- configuration&#45;&gt;validation -->
<g id="edge2" class="edge">
<title>configuration&#45;&gt;validation</title>
<path fill="none" stroke="red" stroke-width="2" d="M96.25,-165.71C96.36,-157.46 96.49,-147.54 96.62,-138.36"/>
<polygon fill="red" stroke="red" stroke-width="2" points="100.12,-138.13 96.76,-128.08 93.12,-138.03 100.12,-138.13"/>
</g>
<!-- artifact_config_data -->
<g id="node7" class="node">
<title>artifact_config_data</title>
<polygon fill="#87ceeb" stroke="black" points="511,-127 431.9,-109 511,-91 590.1,-109 511,-127"/>
<text text-anchor="middle" x="511" y="-105.3" font-family="Arial" font-size="14.00">config_data</text>
</g>
<!-- configuration&#45;&gt;artifact_config_data -->
<g id="edge8" class="edge">
<title>configuration&#45;&gt;artifact_config_data</title>
<path fill="none" stroke="green" stroke-dasharray="5,2" d="M176.12,-181.46C257.74,-178.18 378.45,-171.26 423,-158 444.81,-151.51 467.31,-139.12 484.09,-128.56"/>
<polygon fill="green" stroke="green" points="486.3,-131.3 492.79,-122.92 482.49,-125.42 486.3,-131.3"/>
</g>
<!-- deployment -->
<g id="node4" class="node">
<title>deployment</title>
<path fill="#e6e6fa" stroke="black" d="M164.5,-54C164.5,-54 99.5,-54 99.5,-54 93.5,-54 87.5,-48 87.5,-42 87.5,-42 87.5,-28 87.5,-28 87.5,-22 93.5,-16 99.5,-16 99.5,-16 164.5,-16 164.5,-16 170.5,-16 176.5,-22 176.5,-28 176.5,-28 176.5,-42 176.5,-42 176.5,-48 170.5,-54 164.5,-54"/>
<text text-anchor="middle" x="132" y="-38.8" font-family="Arial" font-size="14.00">Deployment</text>
<text text-anchor="middle" x="132" y="-23.8" font-family="Arial" font-size="14.00">(pending)</text>
</g>
<!-- validation&#45;&gt;deployment -->
<g id="edge3" class="edge">
<title>validation&#45;&gt;deployment</title>
<path fill="none" stroke="red" stroke-width="2" d="M105.83,-89.83C109.7,-81.88 114.32,-72.37 118.6,-63.57"/>
<polygon fill="red" stroke="red" stroke-width="2" points="121.82,-64.94 123.05,-54.41 115.53,-61.88 121.82,-64.94"/>
</g>
<!-- artifact_validation_report -->
<g id="node8" class="node">
<title>artifact_validation_report</title>
<polygon fill="#87ceeb" stroke="black" points="307,-127 200.26,-109 307,-91 413.74,-109 307,-127"/>
<text text-anchor="middle" x="307" y="-105.3" font-family="Arial" font-size="14.00">validation_report</text>
</g>
<!-- validation&#45;&gt;artifact_validation_report -->
<g id="edge11" class="edge">
<title>validation&#45;&gt;artifact_validation_report</title>
<path fill="none" stroke="green" stroke-dasharray="5,2" d="M176.57,-109C181.01,-109 185.45,-109 189.9,-109"/>
<polygon fill="green" stroke="green" points="190.26,-112.5 200.26,-109 190.26,-105.5 190.26,-112.5"/>
</g>
<!-- artifact_deployment_log -->
<g id="node9" class="node">
<title>artifact_deployment_log</title>
<polygon fill="#87ceeb" stroke="black" points="712,-127 608.27,-109 712,-91 815.73,-109 712,-127"/>
<text text-anchor="middle" x="712" y="-105.3" font-family="Arial" font-size="14.00">deployment_log</text>
</g>
<!-- deployment&#45;&gt;artifact_deployment_log -->
<g id="edge13" class="edge">
<title>deployment&#45;&gt;artifact_deployment_log</title>
<path fill="none" stroke="green" stroke-dasharray="5,2" d="M176.65,-38.74C260.04,-44.25 444.92,-58.29 599,-83 619.78,-86.33 642.47,-91.12 662.03,-95.62"/>
<polygon fill="green" stroke="green" points="661.42,-99.07 671.95,-97.94 663.01,-92.25 661.42,-99.07"/>
</g>
<!-- artifact_network_map&#45;&gt;configuration -->
<g id="edge5" class="edge">
<title>artifact_network_map&#45;&gt;configuration</title>
<path fill="none" stroke="blue" stroke-dasharray="5,2" d="M903.73,-123C884.37,-134.64 853.94,-150.91 825,-158 795.31,-165.27 580.55,-164.95 550,-166 423.86,-170.34 278.05,-176.28 186.43,-180.13"/>
<polygon fill="blue" stroke="blue" points="186.2,-176.64 176.36,-180.56 186.5,-183.63 186.2,-176.64"/>
</g>
<!-- artifact_service_inventory&#45;&gt;configuration -->
<g id="edge7" class="edge">
<title>artifact_service_inventory&#45;&gt;configuration</title>
<path fill="none" stroke="blue" stroke-dasharray="5,2" d="M1118.84,-123C1094.91,-134.63 1057.53,-150.9 1023,-158 1002.71,-162.17 415.75,-176.44 186.5,-181.88"/>
<polygon fill="blue" stroke="blue" points="186.1,-178.39 176.18,-182.12 186.26,-185.38 186.1,-178.39"/>
</g>
<!-- artifact_config_data&#45;&gt;validation -->
<g id="edge9" class="edge">
<title>artifact_config_data&#45;&gt;validation</title>
<path fill="none" stroke="blue" stroke-dasharray="5,2" d="M492.98,-123.08C474.42,-136.52 444.04,-155.63 414,-162 390.41,-167.01 220.59,-167.01 197,-162 173.88,-157.09 150.4,-145.09 132.01,-133.75"/>
<polygon fill="blue" stroke="blue" points="133.73,-130.69 123.41,-128.27 129.96,-136.59 133.73,-130.69"/>
</g>
<!-- artifact_config_data&#45;&gt;deployment -->
<g id="edge10" class="edge">
<title>artifact_config_data&#45;&gt;deployment</title>
<path fill="none" stroke="blue" stroke-dasharray="5,2" d="M479.46,-98.07C462.79,-93.07 441.92,-87.2 423,-83 341.47,-64.9 245.62,-50.78 186.85,-42.91"/>
<polygon fill="blue" stroke="blue" points="187.05,-39.41 176.68,-41.57 186.13,-46.35 187.05,-39.41"/>
</g>
<!-- artifact_validation_report&#45;&gt;deployment -->
<g id="edge12" class="edge">
<title>artifact_validation_report&#45;&gt;deployment</title>
<path fill="none" stroke="blue" stroke-dasharray="5,2" d="M277.31,-95.79C252.24,-85.47 215.69,-70.43 185.52,-58.02"/>
<polygon fill="blue" stroke="blue" points="186.55,-54.66 175.97,-54.09 183.89,-61.13 186.55,-54.66"/>
</g>
</g>
</svg>
